<?xml version="1.0" encoding="UTF-8" standalone="no"?>
<svg
   xmlns:dc="http://purl.org/dc/elements/1.1/"
   xmlns:cc="http://creativecommons.org/ns#"
   xmlns:rdf="http://www.w3.org/1999/02/22-rdf-syntax-ns#"
   xmlns:svg="http://www.w3.org/2000/svg"
   xmlns="http://www.w3.org/2000/svg"
   viewBox="0 0 1280 340.16"
   height="340.16"
   width="1280"
   xml:space="preserve"
   id="svg2"
   version="1.1"><metadata
     id="metadata8"><rdf:RDF><cc:Work
         rdf:about=""><dc:format>image/svg+xml</dc:format><dc:type
           rdf:resource="http://purl.org/dc/dcmitype/StillImage" /></cc:Work></rdf:RDF></metadata><defs
     id="defs6"><clipPath
       id="clipPath18"
       clipPathUnits="userSpaceOnUse"><path
         style="clip-rule:evenodd"
         id="path16"
         d="M 0,6.1035e-5 H 960 V 255.12006 H 0 Z" /></clipPath></defs><g
     transform="matrix(1.3333333,0,0,-1.3333333,0,340.16)"
     id="g10"><g
       id="g12"><g
         clip-path="url(#clipPath18)"
         id="g14"><path
           id="path20"
           style="fill:#ffffff;fill-opacity:1;fill-rule:evenodd;stroke:none"
           d="M 0,1.5259e-5 H 960 V 255.12002 H 0 Z" /></g></g><path
       id="path22"
       style="fill:#ff8b8b;fill-opacity:1;fill-rule:evenodd;stroke:none"
       d="m 422.71,158.14 c -9.43,0 -17.04,-3.93 -22.8,-11.79 -5.09,-6.96 -7.64,-15.76 -7.64,-26.4 0,-9.13 1.8,-16.96 5.39,-23.472 5.54,-9.959 13.82,-14.939 24.83,-14.939 6.81,0 13.03,2.584 18.64,7.751 8.24,7.563 12.36,17.11 12.36,28.64 v 8.99 c 0,8.31 -3.07,15.57 -9.21,21.79 -6.22,6.29 -13.41,9.43 -21.57,9.43 z m 442.68,0.68 c -9.51,0 -17,-4.12 -22.46,-12.36 -4.57,-6.89 -6.85,-15.61 -6.85,-26.17 0,-8.01 1.27,-15.01 3.82,-21.003 5.09,-11.832 13.7,-17.748 25.83,-17.748 9.66,0 17.15,4.044 22.47,12.131 4.56,6.96 6.85,15.84 6.85,26.62 0,10.93 -2.44,19.85 -7.3,26.73 -5.47,7.87 -12.92,11.8 -22.36,11.8 z m -232.4,23.02 c 3.82,0 7.19,-1.08 10.11,-3.25 3.07,-2.4 4.61,-5.54 4.61,-9.44 V 70.532 c 0,-3.071 -0.94,-5.654 -2.81,-7.751 -2.85,-3.295 -6.85,-4.942 -12.02,-4.942 -5.84,0 -10.11,2.059 -12.8,6.178 -1.2,1.872 -1.8,4.043 -1.8,6.515 v 98.618 c 0,4.5 1.95,7.9 5.84,10.22 2.7,1.65 5.65,2.47 8.87,2.47 z m -75.43,0 c 3.89,0 7.3,-1.08 10.22,-3.25 3,-2.32 4.49,-5.39 4.49,-9.21 V 47.056 c 0,-13.479 -3.85,-23.663 -11.57,-30.552 -6.66,-5.841 -15.61,-8.7617 -26.84,-8.7617 -12.73,0 -22.8,4.2307 -30.22,12.6927 -3.67,4.193 -5.5,8.424 -5.5,12.693 0,5.316 2.17,9.397 6.51,12.243 2.03,1.348 4.35,2.022 6.97,2.022 4.64,0 8.76,-2.359 12.35,-7.077 2.7,-3.594 5.88,-5.391 9.55,-5.391 6.22,0 9.32,4.118 9.32,12.355 v 122.1 c 0,4.34 1.99,7.67 5.96,9.99 2.77,1.65 5.69,2.47 8.76,2.47 z m -345.65,0 c 3.82,0 7.19,-1.08 10.11,-3.25 3.07,-2.4 4.61,-5.54 4.61,-9.44 V 70.532 c 0,-3.071 -0.94,-5.654 -2.81,-7.751 -2.85,-3.295 -6.85,-4.942 -12.02,-4.942 -5.84,0 -10.11,2.059 -12.8,6.178 -1.2,1.872 -1.8,4.043 -1.8,6.515 v 98.618 c 0,4.5 1.95,7.9 5.84,10.22 2.7,1.65 5.65,2.47 8.87,2.47 z m 206.31,0.68 c 16.62,0 29.16,-5.51 37.63,-16.51 l 0.67,7.3 c 0.52,6.14 4.53,9.21 12.02,9.21 5.99,0 10.11,-2.29 12.35,-6.85 0.75,-1.58 1.13,-3.34 1.13,-5.28 V 70.082 c 0,-2.546 -0.56,-4.792 -1.69,-6.739 -2.24,-3.669 -5.99,-5.504 -11.23,-5.504 -7.26,0 -11.46,3.781 -12.58,11.345 l -1.24,7.75 C 447.87,63.605 435.18,56.94 417.21,56.94 c -19.17,0 -33.93,7.713 -44.26,23.139 -7.34,10.933 -11.01,24.191 -11.01,39.761 0,14.75 3.75,27.6 11.24,38.53 6.14,9.06 14.07,15.65 23.81,19.77 6.74,2.92 13.81,4.38 21.23,4.38 z m 447.51,0.67 c 16.92,0 30.85,-5.61 41.78,-16.85 11.46,-11.75 17.19,-27.18 17.19,-46.27 0,-15.05 -3.52,-27.972 -10.56,-38.755 -10.86,-16.549 -27.07,-24.824 -48.63,-24.824 -18.87,0 -33.78,6.59 -44.71,19.769 -9.58,11.457 -14.38,26.1 -14.38,43.92 0,19.09 5.69,34.44 17.08,46.05 11,11.31 25.08,16.96 42.23,16.96 z m -124.35,0 c 16.18,0 28.98,-4.64 38.42,-13.93 4.87,-4.79 7.3,-9.62 7.3,-14.49 0,-3.66 -1.5,-6.81 -4.49,-9.43 -2.7,-2.32 -5.77,-3.48 -9.21,-3.48 -3.9,0 -7.15,1.61 -9.78,4.83 -6.36,7.79 -13.85,11.68 -22.46,11.68 -9.81,0 -17.67,-4.12 -23.59,-12.36 -5.02,-6.96 -7.52,-15.65 -7.52,-26.06 0,-10.55 2.84,-19.39 8.53,-26.504 6.29,-7.788 14.01,-11.682 23.14,-11.682 8.76,0 16.7,4.456 23.81,13.367 2.25,2.92 5.13,4.38 8.65,4.38 3.3,0 6.41,-1.273 9.33,-3.819 3.37,-2.845 5.05,-6.515 5.05,-11.008 0,-3.968 -1.72,-7.937 -5.17,-11.906 -9.43,-10.858 -23.32,-16.287 -41.67,-16.287 -18.72,0 -33.85,6.215 -45.38,18.646 -10.93,11.756 -16.4,26.803 -16.4,45.153 0,11.68 2.59,22.32 7.75,31.9 8.09,15.05 20.45,24.71 37.07,28.98 5.32,1.35 10.86,2.02 16.62,2.02 z m -440.06,34.04 c 5.77,0 9.96,-2.1 12.58,-6.29 1.2,-1.88 1.8,-4.01 1.8,-6.41 v -25.49 h 23.7 c 2.77,0 5.02,-1.01 6.74,-3.04 2.1,-2.39 3.14,-5.43 3.14,-9.09 0,-4.8 -1.72,-8.32 -5.16,-10.56 -1.35,-0.83 -2.92,-1.24 -4.72,-1.24 H 315.7 V 70.307 c 0,-2.995 -0.9,-5.541 -2.7,-7.638 -2.84,-3.22 -6.81,-4.83 -11.9,-4.83 -5.77,0 -9.96,2.022 -12.58,6.065 -1.2,1.798 -1.8,3.932 -1.8,6.403 v 84.803 h -23.7 c -2.25,0 -4.19,0.71 -5.84,2.14 -2.7,2.32 -4.05,5.61 -4.05,9.88 0,4.94 1.73,8.46 5.17,10.56 1.42,0.9 3,1.35 4.72,1.35 h 23.7 v 25.49 c 0,3.15 1.01,5.81 3.03,7.98 2.77,3.14 6.63,4.72 11.57,4.72 z M 59.782,230.82 c 5.766,0 9.96,-1.95 12.58,-5.84 1.273,-1.87 1.91,-4.05 1.91,-6.52 v -57.28 c 3.295,5.24 7.601,9.58 12.917,13.03 7.938,5.09 17.001,7.63 27.181,7.63 15.43,0 26.81,-6.25 34.15,-18.75 4.34,-7.49 6.51,-17.19 6.51,-29.1 V 70.307 c 0,-3.52 -1.23,-6.403 -3.7,-8.649 -2.92,-2.546 -6.63,-3.819 -11.12,-3.819 -5.77,0 -9.96,2.022 -12.58,6.065 -1.2,1.872 -1.8,4.007 -1.8,6.403 v 58.413 c 0,6.59 -1.09,12.16 -3.26,16.73 -3.52,7.27 -8.98,10.9 -16.4,10.9 -8.085,0 -15.349,-3.67 -21.789,-11.01 C 77.642,137.78 74.272,130.7 74.272,124.11 V 70.307 c 0,-2.995 -0.899,-5.541 -2.696,-7.638 -2.771,-3.22 -6.739,-4.83 -11.906,-4.83 -5.916,0 -10.184,2.022 -12.805,6.065 -1.198,1.798 -1.797,3.932 -1.797,6.403 V 218.46 c 0,2.92 0.898,5.43 2.695,7.53 2.846,3.22 6.852,4.83 12.019,4.83 z m 573.328,1.46 c 3.29,0 6.44,-0.94 9.43,-2.81 5.92,-3.52 8.87,-8.72 8.87,-15.61 0,-4.8 -1.64,-8.95 -4.94,-12.47 -3.59,-3.97 -8.12,-5.95 -13.59,-5.95 -3.07,0 -5.99,0.74 -8.76,2.24 -6.37,3.6 -9.55,9.03 -9.55,16.29 0,5.69 2.14,10.33 6.4,13.93 3.52,2.92 7.57,4.38 12.14,4.38 z m -75.44,0 c 3.3,0 6.44,-0.94 9.44,-2.81 5.91,-3.52 8.87,-8.72 8.87,-15.61 0,-4.8 -1.65,-8.95 -4.94,-12.47 -3.6,-3.97 -8.13,-5.95 -13.59,-5.95 -3.07,0 -5.99,0.74 -8.76,2.24 -6.37,3.6 -9.55,9.03 -9.55,16.29 0,5.62 2.13,10.26 6.4,13.93 3.52,2.92 7.56,4.38 12.13,4.38 z m -345.64,0 c 3.29,0 6.44,-0.94 9.43,-2.81 5.92,-3.52 8.87,-8.72 8.87,-15.61 0,-4.8 -1.64,-8.95 -4.94,-12.47 -3.59,-3.97 -8.12,-5.95 -13.59,-5.95 -3.07,0 -5.99,0.74 -8.76,2.24 -6.37,3.6 -9.55,9.03 -9.55,16.29 0,5.69 2.14,10.33 6.4,13.93 3.52,2.92 7.57,4.38 12.14,4.38 z" /><path
       id="path24"
       style="fill:none;stroke:#ff8b8b;stroke-width:2.27999997;stroke-linecap:butt;stroke-linejoin:round;stroke-miterlimit:10;stroke-dasharray:none;stroke-opacity:1"
       d="m 422.71,158.14 c -9.43,0 -17.04,-3.93 -22.8,-11.79 -5.09,-6.96 -7.64,-15.76 -7.64,-26.4 0,-9.13 1.8,-16.96 5.39,-23.472 5.54,-9.959 13.82,-14.939 24.83,-14.939 6.81,0 13.03,2.584 18.64,7.751 8.24,7.563 12.36,17.11 12.36,28.64 v 8.99 c 0,8.31 -3.07,15.57 -9.21,21.79 -6.22,6.29 -13.41,9.43 -21.57,9.43 z m 442.68,0.68 c -9.51,0 -17,-4.12 -22.46,-12.36 -4.57,-6.89 -6.85,-15.61 -6.85,-26.17 0,-8.01 1.27,-15.01 3.82,-21.003 5.09,-11.832 13.7,-17.748 25.83,-17.748 9.66,0 17.15,4.044 22.47,12.131 4.56,6.96 6.85,15.84 6.85,26.62 0,10.93 -2.44,19.85 -7.3,26.73 -5.47,7.87 -12.92,11.8 -22.36,11.8 z m -232.4,23.02 c 3.82,0 7.19,-1.08 10.11,-3.25 3.07,-2.4 4.61,-5.54 4.61,-9.44 V 70.532 c 0,-3.071 -0.94,-5.654 -2.81,-7.751 -2.85,-3.295 -6.85,-4.942 -12.02,-4.942 -5.84,0 -10.11,2.059 -12.8,6.178 -1.2,1.872 -1.8,4.043 -1.8,6.515 v 98.618 c 0,4.5 1.95,7.9 5.84,10.22 2.7,1.65 5.65,2.47 8.87,2.47 z m -75.43,0 c 3.89,0 7.3,-1.08 10.22,-3.25 3,-2.32 4.49,-5.39 4.49,-9.21 V 47.056 c 0,-13.479 -3.85,-23.663 -11.57,-30.552 -6.66,-5.841 -15.61,-8.7617 -26.84,-8.7617 -12.73,0 -22.8,4.2307 -30.22,12.6927 -3.67,4.193 -5.5,8.424 -5.5,12.693 0,5.316 2.17,9.397 6.51,12.243 2.03,1.348 4.35,2.022 6.97,2.022 4.64,0 8.76,-2.359 12.35,-7.077 2.7,-3.594 5.88,-5.391 9.55,-5.391 6.22,0 9.32,4.118 9.32,12.355 v 122.1 c 0,4.34 1.99,7.67 5.96,9.99 2.77,1.65 5.69,2.47 8.76,2.47 z m -345.65,0 c 3.82,0 7.19,-1.08 10.11,-3.25 3.07,-2.4 4.61,-5.54 4.61,-9.44 V 70.532 c 0,-3.071 -0.94,-5.654 -2.81,-7.751 -2.85,-3.295 -6.85,-4.942 -12.02,-4.942 -5.84,0 -10.11,2.059 -12.8,6.178 -1.2,1.872 -1.8,4.043 -1.8,6.515 v 98.618 c 0,4.5 1.95,7.9 5.84,10.22 2.7,1.65 5.65,2.47 8.87,2.47 z m 206.31,0.68 c 16.62,0 29.16,-5.51 37.63,-16.51 l 0.67,7.3 c 0.52,6.14 4.53,9.21 12.02,9.21 5.99,0 10.11,-2.29 12.35,-6.85 0.75,-1.58 1.13,-3.34 1.13,-5.28 V 70.082 c 0,-2.546 -0.56,-4.792 -1.69,-6.739 -2.24,-3.669 -5.99,-5.504 -11.23,-5.504 -7.26,0 -11.46,3.781 -12.58,11.345 l -1.24,7.75 C 447.87,63.605 435.18,56.94 417.21,56.94 c -19.17,0 -33.93,7.713 -44.26,23.139 -7.34,10.933 -11.01,24.191 -11.01,39.761 0,14.75 3.75,27.6 11.24,38.53 6.14,9.06 14.07,15.65 23.81,19.77 6.74,2.92 13.81,4.38 21.23,4.38 z m 447.51,0.67 c 16.92,0 30.85,-5.61 41.78,-16.85 11.46,-11.75 17.19,-27.18 17.19,-46.27 0,-15.05 -3.52,-27.972 -10.56,-38.755 -10.86,-16.549 -27.07,-24.824 -48.63,-24.824 -18.87,0 -33.78,6.59 -44.71,19.769 -9.58,11.457 -14.38,26.1 -14.38,43.92 0,19.09 5.69,34.44 17.08,46.05 11,11.31 25.08,16.96 42.23,16.96 z m -124.35,0 c 16.18,0 28.98,-4.64 38.42,-13.93 4.87,-4.79 7.3,-9.62 7.3,-14.49 0,-3.66 -1.5,-6.81 -4.49,-9.43 -2.7,-2.32 -5.77,-3.48 -9.21,-3.48 -3.9,0 -7.15,1.61 -9.78,4.83 -6.36,7.79 -13.85,11.68 -22.46,11.68 -9.81,0 -17.67,-4.12 -23.59,-12.36 -5.02,-6.96 -7.52,-15.65 -7.52,-26.06 0,-10.55 2.84,-19.39 8.53,-26.504 6.29,-7.788 14.01,-11.682 23.14,-11.682 8.76,0 16.7,4.456 23.81,13.367 2.25,2.92 5.13,4.38 8.65,4.38 3.3,0 6.41,-1.273 9.33,-3.819 3.37,-2.845 5.05,-6.515 5.05,-11.008 0,-3.968 -1.72,-7.937 -5.17,-11.906 -9.43,-10.858 -23.32,-16.287 -41.67,-16.287 -18.72,0 -33.85,6.215 -45.38,18.646 -10.93,11.756 -16.4,26.803 -16.4,45.153 0,11.68 2.59,22.32 7.75,31.9 8.09,15.05 20.45,24.71 37.07,28.98 5.32,1.35 10.86,2.02 16.62,2.02 z m -440.06,34.04 c 5.77,0 9.96,-2.1 12.58,-6.29 1.2,-1.88 1.8,-4.01 1.8,-6.41 v -25.49 h 23.7 c 2.77,0 5.02,-1.01 6.74,-3.04 2.1,-2.39 3.14,-5.43 3.14,-9.09 0,-4.8 -1.72,-8.32 -5.16,-10.56 -1.35,-0.83 -2.92,-1.24 -4.72,-1.24 H 315.7 V 70.307 c 0,-2.995 -0.9,-5.541 -2.7,-7.638 -2.84,-3.22 -6.81,-4.83 -11.9,-4.83 -5.77,0 -9.96,2.022 -12.58,6.065 -1.2,1.798 -1.8,3.932 -1.8,6.403 v 84.803 h -23.7 c -2.25,0 -4.19,0.71 -5.84,2.14 -2.7,2.32 -4.05,5.61 -4.05,9.88 0,4.94 1.73,8.46 5.17,10.56 1.42,0.9 3,1.35 4.72,1.35 h 23.7 v 25.49 c 0,3.15 1.01,5.81 3.03,7.98 2.77,3.14 6.63,4.72 11.57,4.72 z M 59.782,230.82 c 5.766,0 9.96,-1.95 12.58,-5.84 1.273,-1.87 1.91,-4.05 1.91,-6.52 v -57.28 c 3.295,5.24 7.601,9.58 12.917,13.03 7.938,5.09 17.001,7.63 27.181,7.63 15.43,0 26.81,-6.25 34.15,-18.75 4.34,-7.49 6.51,-17.19 6.51,-29.1 V 70.307 c 0,-3.52 -1.23,-6.403 -3.7,-8.649 -2.92,-2.546 -6.63,-3.819 -11.12,-3.819 -5.77,0 -9.96,2.022 -12.58,6.065 -1.2,1.872 -1.8,4.007 -1.8,6.403 v 58.413 c 0,6.59 -1.09,12.16 -3.26,16.73 -3.52,7.27 -8.98,10.9 -16.4,10.9 -8.085,0 -15.349,-3.67 -21.789,-11.01 C 77.642,137.78 74.272,130.7 74.272,124.11 V 70.307 c 0,-2.995 -0.899,-5.541 -2.696,-7.638 -2.771,-3.22 -6.739,-4.83 -11.906,-4.83 -5.916,0 -10.184,2.022 -12.805,6.065 -1.198,1.798 -1.797,3.932 -1.797,6.403 V 218.46 c 0,2.92 0.898,5.43 2.695,7.53 2.846,3.22 6.852,4.83 12.019,4.83 z m 573.328,1.46 c 3.29,0 6.44,-0.94 9.43,-2.81 5.92,-3.52 8.87,-8.72 8.87,-15.61 0,-4.8 -1.64,-8.95 -4.94,-12.47 -3.59,-3.97 -8.12,-5.95 -13.59,-5.95 -3.07,0 -5.99,0.74 -8.76,2.24 -6.37,3.6 -9.55,9.03 -9.55,16.29 0,5.69 2.14,10.33 6.4,13.93 3.52,2.92 7.57,4.38 12.14,4.38 z m -75.44,0 c 3.3,0 6.44,-0.94 9.44,-2.81 5.91,-3.52 8.87,-8.72 8.87,-15.61 0,-4.8 -1.65,-8.95 -4.94,-12.47 -3.6,-3.97 -8.13,-5.95 -13.59,-5.95 -3.07,0 -5.99,0.74 -8.76,2.24 -6.37,3.6 -9.55,9.03 -9.55,16.29 0,5.62 2.13,10.26 6.4,13.93 3.52,2.92 7.56,4.38 12.13,4.38 z m -345.64,0 c 3.29,0 6.44,-0.94 9.43,-2.81 5.92,-3.52 8.87,-8.72 8.87,-15.61 0,-4.8 -1.64,-8.95 -4.94,-12.47 -3.59,-3.97 -8.12,-5.95 -13.59,-5.95 -3.07,0 -5.99,0.74 -8.76,2.24 -6.37,3.6 -9.55,9.03 -9.55,16.29 0,5.69 2.14,10.33 6.4,13.93 3.52,2.92 7.57,4.38 12.14,4.38 z" /></g></svg>